<svg width="17" height="15" viewBox="0 0 17 15" fill="none" xmlns="http://www.w3.org/2000/svg">
    <path fill-rule="evenodd" clip-rule="evenodd" d="M8.8112 14.6862C8.39627 14.2678 8.39627 13.5894 8.8112 13.171L13.3724 8.57143L1.0625 8.57143C0.475695 8.57143 -1.30341e-06 8.09173 -1.25168e-06 7.5C-1.19995e-06 6.90827 0.475695 6.42857 1.0625 6.42857L13.3724 6.42857L8.8112 1.82904C8.39627 1.41063 8.39627 0.732234 8.8112 0.313815C9.22613 -0.104603 9.89887 -0.104603 10.3138 0.313815L16.6888 6.74239C16.8881 6.94332 17 7.21584 17 7.5C17 7.78416 16.8881 8.05668 16.6888 8.25762L10.3138 14.6862C9.89887 15.1046 9.22613 15.1046 8.8112 14.6862Z" fill="white"/>
</svg>
