<svg width="55" height="27" viewBox="0 0 55 27" fill="none" xmlns="http://www.w3.org/2000/svg">
<path d="M8.76851 11.4419C9.14867 11.4419 9.36941 11.4419 9.59014 11.4419C23.8767 11.4419 38.1509 11.4419 52.4374 11.4419C53.1732 11.4419 53.8845 11.5255 54.3995 12.0862C54.9514 12.6828 55.1598 13.3986 54.8655 14.1861C54.5467 14.9855 53.9335 15.4269 53.0751 15.5462C52.8911 15.5701 52.7072 15.5701 52.5233 15.5701C38.1141 15.5701 23.7172 15.5701 9.30808 15.5701C9.11187 15.5701 8.90341 15.5701 8.53551 15.5701C9.57787 16.5007 10.4976 17.3239 11.4173 18.1353C13.2813 19.7698 15.1453 21.4163 16.9971 23.0628C17.7451 23.719 17.8677 24.578 17.647 25.4729C17.4508 26.2842 16.8622 26.7495 16.0405 26.9523C15.2925 27.1313 14.6793 26.8688 14.1397 26.3916C11.8465 24.3513 9.55335 22.3231 7.26015 20.2829C5.02826 18.3023 2.79638 16.3098 0.564496 14.3293C-0.195815 13.6492 -0.208079 13.3748 0.564496 12.6947C5.05279 8.69779 9.55335 4.71281 14.0539 0.715906C15.0595 -0.166992 16.2 -0.226646 17.0706 0.572735C17.929 1.36019 18.0394 2.92315 17.2178 3.78219C16.4329 4.5935 15.5623 5.30937 14.7161 6.06102C12.8521 7.73137 10.9881 9.38979 9.12414 11.0601C9.02603 11.1317 8.96472 11.2272 8.76851 11.4419Z" fill="url(#paint0_linear_544_4593)"/>
<defs>
<linearGradient id="paint0_linear_544_4593" x1="27.4943" y1="27.0088" x2="27.4943" y2="0.0111747" gradientUnits="userSpaceOnUse">
<stop stop-color="#16538C"/>
<stop offset="1" stop-color="#18A0AA"/>
</linearGradient>
</defs>
</svg>
