<svg width="55" height="27" viewBox="0 0 55 27" fill="none" xmlns="http://www.w3.org/2000/svg">
<path d="M46.2315 15.5581C45.8513 15.5581 45.6306 15.5581 45.4099 15.5581C31.1233 15.5581 16.8491 15.5581 2.56259 15.5581C1.8268 15.5581 1.11554 15.4745 0.60049 14.9138C0.0486503 14.3172 -0.159822 13.6014 0.134492 12.8139C0.453333 12.0145 1.06649 11.5731 1.9249 11.4538C2.10885 11.4299 2.2928 11.4299 2.47674 11.4299C16.8859 11.4299 31.2828 11.4299 45.6919 11.4299C45.8881 11.4299 46.0966 11.4299 46.4645 11.4299C45.4221 10.4993 44.5024 9.67605 43.5827 8.86474C41.7187 7.23018 39.8547 5.58369 38.0029 3.93721C37.2549 3.281 37.1323 2.42196 37.353 1.52713C37.5492 0.715819 38.1378 0.250507 38.9595 0.0476792C39.7075 -0.131287 40.3207 0.131197 40.8603 0.608439C43.1535 2.64865 45.4467 4.67693 47.7399 6.71714C49.9717 8.6977 52.2036 10.6902 54.4355 12.6707C55.1958 13.3508 55.2081 13.6252 54.4355 14.3053C49.9472 18.3022 45.4467 22.2872 40.9461 26.2841C39.9405 27.167 38.8 27.2266 37.9294 26.4273C37.071 25.6398 36.9606 24.0768 37.7822 23.2178C38.5671 22.4065 39.4377 21.6906 40.2839 20.939C42.1479 19.2686 44.0119 17.6102 45.8759 15.9399C45.974 15.8683 46.0353 15.7728 46.2315 15.5581Z" fill="url(#paint0_linear_544_4233)"/>
<defs>
<linearGradient id="paint0_linear_544_4233" x1="27.5057" y1="-0.00878906" x2="27.5057" y2="26.9888" gradientUnits="userSpaceOnUse">
<stop stop-color="#16538C"/>
<stop offset="1" stop-color="#18A0AA"/>
</linearGradient>
</defs>
</svg>
