<svg width="28" height="28" viewBox="0 0 28 28" fill="none" xmlns="http://www.w3.org/2000/svg">
<path fill="#18a0aa" d="M13.9997 4.66667C12.604 4.66735 11.2262 4.98104 9.96777 5.58465C8.70934 6.18826 7.60231 7.06642 6.72818 8.15448C5.85404 9.24254 5.23506 10.5128 4.9168 11.8717C4.59854 13.2307 4.5891 14.6437 4.88918 16.0067C5.18927 17.3698 5.79123 18.6482 6.65076 19.7478C7.51028 20.8475 8.60549 21.7403 9.85574 22.3607C11.106 22.981 12.4795 23.3131 13.875 23.3324C15.2706 23.3518 16.6527 23.0578 17.9197 22.4723C18.2005 22.3421 18.5215 22.3287 18.8122 22.4351C19.1028 22.5416 19.3393 22.7591 19.4696 23.0399C19.5999 23.3207 19.6132 23.6418 19.5068 23.9324C19.4004 24.2231 19.1828 24.4596 18.902 24.5898C17.3658 25.3014 15.6927 25.6689 13.9997 25.6667C7.55618 25.6667 2.33301 20.4435 2.33301 14C2.33301 7.5565 7.55618 2.33333 13.9997 2.33333C20.4432 2.33333 25.6663 7.5565 25.6663 14V14.0222C25.6173 16.5772 24.803 18.298 23.6048 19.3655C22.4335 20.4085 21.0463 20.6932 20.078 20.6932C18.6873 20.6932 17.4658 19.9698 16.767 18.8802C14.345 21.021 10.852 21.4923 8.69601 19.096C6.44901 16.5993 7.07551 12.4308 9.47301 9.76733C11.7923 7.19017 16.0098 6.195 18.4307 9.177C18.5357 8.89484 18.7457 8.66421 19.0168 8.53331C19.288 8.40242 19.5992 8.38141 19.8855 8.47467C20.1717 8.56793 20.4108 8.76824 20.5528 9.03372C20.6948 9.2992 20.7287 9.6093 20.6473 9.89917C19.9567 12.3212 19.1423 14.721 18.5322 17.164C18.6212 17.5063 18.8213 17.8093 19.101 18.0257C19.3808 18.2421 19.7243 18.3596 20.078 18.3598C20.638 18.3598 21.4173 18.1895 22.0532 17.6237C22.6598 17.0835 23.2922 16.044 23.333 13.9895C23.3302 11.516 22.3457 9.14469 20.5956 7.39662C18.8456 5.64855 16.4732 4.66667 13.9997 4.66667ZM16.7448 15.0663C16.8265 14.7863 17.04 14.0385 17.2897 13.167C17.5615 12.2103 17.208 11.2933 16.4637 10.465C15.3903 9.27383 13.0897 9.2365 11.2078 11.3283C9.31434 13.4307 9.24551 16.2178 10.4308 17.535C11.503 18.7262 13.8037 18.7635 15.6867 16.6717C16.1218 16.1887 16.5313 15.687 16.7448 15.0663Z" fill="url(#paint0_linear_523_3795)"/>
<defs>
</defs>
</svg>
