<svg version="1.2" baseProfile="tiny-ps" xmlns="http://www.w3.org/2000/svg" viewBox="0 0 403 425" width="403" height="425">
	<defs>
		<linearGradient id="grd1" gradientUnits="userSpaceOnUse"  x1="236.336" y1="324.327" x2="390.757" y2="333.41">
			<stop offset="0" stop-color="#16538c"  />
			<stop offset="1" stop-color="#16538c" stop-opacity="0" />
		</linearGradient>
		<linearGradient id="grd2" gradientUnits="userSpaceOnUse"  x1="92.706" y1="21.884" x2="200.405" y2="237.83">
			<stop offset="0" stop-color="#16538c"  />
			<stop offset="1" stop-color="#16538c" stop-opacity="0" />
		</linearGradient>
	</defs>
	<style>
		tspan { white-space:pre }
		.shp0 { fill: none;stroke: url(#grd1);stroke-opacity:0.5 } 
		.shp1 { fill: none;stroke: url(#grd2) } 
	</style>
	<path id="Layer" class="shp0" d="M376.78 398.16C342.65 432.29 287.47 432.29 253.34 398.16C219.21 364.03 219.21 308.85 253.34 274.72C287.47 240.59 342.65 240.59 376.78 274.72C410.91 308.85 410.91 364.03 376.78 398.16Z" />
	<path id="Layer" class="shp1" d="M270.1 172.95C250.63 245.59 175.7 288.63 102.73 269.08C29.76 249.52 -13.61 174.78 5.86 102.14C25.32 29.5 100.25 -13.54 173.22 6.01C246.19 25.57 289.56 100.31 270.1 172.95Z" />
</svg>