<svg width="710" height="682" viewBox="0 0 710 682" fill="none" xmlns="http://www.w3.org/2000/svg">
<path d="M423.042 196.707C399.76 197.013 379.884 177.791 379.274 154.592C378.715 131.291 399.252 110.386 422.584 110.539C445.816 110.641 465.285 130.22 465.387 153.521C465.488 177.281 446.68 196.452 423.042 196.707Z" fill="url(#paint0_linear_7:78)" fill-opacity="0.13"/>
<path d="M169.736 232.245C193.323 232.194 212.894 251.62 212.894 274.972C212.894 298.528 193.78 317.546 169.786 317.852C146.403 318.158 126.781 298.63 126.73 275.023C126.73 251.365 145.844 232.296 169.736 232.245Z" fill="url(#paint1_linear_7:78)" fill-opacity="0.13"/>
<path d="M465.387 638.865C465.387 662.472 446.121 681.796 422.483 682C399.76 682.153 379.172 661.554 379.325 638.712C379.528 615.054 398.845 595.985 422.584 596.036C446.68 596.087 465.387 614.799 465.387 638.865Z" fill="url(#paint2_linear_7:78)" fill-opacity="0.13"/>
<path d="M85.8594 153.98C85.8594 178.097 67.2033 196.707 43.0571 196.707C19.8767 196.707 -0.101098 176.618 0.0514045 153.47C0.203907 129.965 20.9442 110.081 44.8363 110.539C67.6099 110.947 85.9102 130.322 85.8594 153.98Z" fill="url(#paint3_linear_7:78)" fill-opacity="0.13"/>
<path d="M126.78 396.627C126.679 373.02 146.047 353.237 169.329 353.186C192.763 353.135 212.588 372.561 212.893 395.862C213.198 418.806 193.068 439.252 170.091 439.405C146.809 439.66 126.882 419.979 126.78 396.627Z" fill="url(#paint4_linear_7:78)" fill-opacity="0.13"/>
<path d="M465.387 396.423C465.336 419.877 445.816 439.456 422.381 439.456C399.404 439.456 379.121 419.01 379.325 396.117C379.528 372.867 399.303 353.237 422.686 353.186C446.121 353.186 465.387 372.663 465.387 396.423Z" fill="url(#paint5_linear_7:78)" fill-opacity="0.13"/>
<path d="M506.308 396.321C506.308 372.408 525.524 353.033 549.009 353.186C572.291 353.39 592.625 373.632 592.269 396.27C591.913 419.724 572.088 439.456 549.06 439.405C525.219 439.405 506.257 420.285 506.308 396.321Z" fill="url(#paint6_linear_7:78)" fill-opacity="0.13"/>
<path d="M295.753 560.09C272.573 559.988 253.51 541.225 253.256 518.281C253.002 494.062 272.827 474.025 296.668 474.382C319.899 474.738 339.521 494.725 339.369 517.924C339.216 541.123 319.493 560.192 295.753 560.09Z" fill="url(#paint7_linear_7:78)" fill-opacity="0.13"/>
<path d="M85.91 275.074C85.8592 299.14 66.9489 318.107 43.2094 317.903C19.5207 317.699 -0.101275 298.273 0.000393316 275.023C0.0512274 251.314 19.0632 232.602 43.2602 232.449C67.3047 232.296 85.9609 250.906 85.91 275.074Z" fill="url(#paint8_linear_7:78)" fill-opacity="0.13"/>
<path d="M465.387 516.701C465.641 540.97 447.29 559.886 423.398 560.09C399.099 560.294 379.985 542.143 379.426 518.332C378.867 494.98 399.404 474.28 423.093 474.381C445.866 474.432 465.133 493.705 465.387 516.701Z" fill="url(#paint9_linear_7:78)" fill-opacity="0.13"/>
<path d="M461.371 274.819C461.473 295.979 443.782 313.773 422.381 314.028C401.488 314.283 383.696 296.081 383.9 274.666C384.103 253.966 401.59 236.273 422.076 236.018C443.121 235.712 461.269 253.66 461.371 274.819Z" fill="url(#paint10_linear_7:78)" fill-opacity="0.13"/>
<path d="M294.635 432.572C274.962 432.063 258.492 414.574 259.305 394.995C260.119 375.212 277.504 358.896 297.024 359.559C317.154 360.273 333.218 376.946 332.913 396.78C332.557 417.225 315.528 433.133 294.635 432.572Z" fill="url(#paint11_linear_7:78)" fill-opacity="0.13"/>
<path d="M204.455 154.388C203.794 173.814 187.324 189.518 168.515 188.6C150.164 187.682 134.151 170.908 134.812 153.266C135.524 133.993 152.197 118.289 170.854 119.258C189.764 120.227 205.065 136.237 204.455 154.388Z" fill="url(#paint12_linear_7:78)" fill-opacity="0.13"/>
<path d="M583.322 275.329C583.423 294.092 568.326 309.184 549.212 309.49C529.895 309.796 514.086 294.092 514.187 274.717C514.289 256.413 530.149 240.658 548.653 240.403C567.919 240.199 583.22 255.597 583.322 275.329Z" fill="url(#paint13_linear_7:78)" fill-opacity="0.13"/>
<path d="M261.643 152.909C261.847 134.401 277.707 119.003 296.363 119.156C315.578 119.309 330.829 135.166 330.575 154.643C330.219 173.355 314.206 189.161 296.007 188.651C276.945 188.09 261.389 171.928 261.643 152.909Z" fill="url(#paint14_linear_7:78)" fill-opacity="0.13"/>
<path d="M641.12 395.25C641.527 376.895 657.692 361.191 675.84 361.446C694.75 361.752 710.559 378.373 709.949 397.341C709.339 415.849 693.479 431.094 674.925 431.043C656.014 430.992 640.713 414.829 641.12 395.25Z" fill="url(#paint15_linear_7:78)" fill-opacity="0.13"/>
<path d="M295.804 672.873C276.64 672.771 261.796 658.036 261.644 638.916C261.491 620.153 278.114 603.48 296.567 603.939C315.477 604.347 330.422 619.541 330.524 638.457C330.626 658.342 315.833 672.975 295.804 672.873Z" fill="url(#paint16_linear_7:78)" fill-opacity="0.13"/>
<path d="M203.083 516.803C203.337 535.26 188.799 550.403 170.447 550.709C151.842 551.015 136.897 536.586 136.694 518.077C136.49 499.416 150.724 484.375 169.177 483.916C187.121 483.457 202.829 498.702 203.083 516.803Z" fill="url(#paint17_linear_7:78)" fill-opacity="0.13"/>
<path d="M296.16 65.0083C278.063 65.0593 263.931 50.63 263.982 32.1728C264.083 14.2254 278.825 -0.203887 296.871 6.04356e-05C314.155 0.204008 328.236 14.6333 328.388 32.2747C328.49 50.63 314.409 64.9063 296.16 65.0083Z" fill="url(#paint18_linear_7:78)" fill-opacity="0.13"/>
<path d="M705.476 275.482C705.273 292.257 691.751 305.717 675.23 305.513C659.166 305.36 644.882 291.186 644.729 275.227C644.526 258.299 658.556 244.788 676.094 244.992C693.022 245.196 705.679 258.35 705.476 275.482Z" fill="url(#paint19_linear_7:78)" fill-opacity="0.13"/>
<path d="M548.246 179.423C533.758 179.168 522.931 168.46 522.829 154.235C522.727 139.194 534.775 127.365 549.873 127.722C564.513 128.079 575.646 139.755 575.239 154.439C574.782 169.174 563.445 179.678 548.246 179.423Z" fill="url(#paint20_linear_7:78)" fill-opacity="0.13"/>
<path d="M43.2602 493.297C56.782 493.145 67.8639 504.005 68.0164 517.465C68.1689 530.671 56.7312 542.245 43.5652 542.296C30.1958 542.347 19.0631 531.232 18.9106 517.72C18.809 504.005 29.3316 493.399 43.2602 493.297Z" fill="url(#paint21_linear_7:78)" fill-opacity="0.13"/>
<path d="M548.5 540.052C535.131 539.848 526.082 530.416 526.286 516.955C526.489 504.464 537.317 493.858 549.466 494.266C561.412 494.674 572.392 506.095 572.24 517.975C572.087 530.059 561.107 540.307 548.5 540.052Z" fill="url(#paint22_linear_7:78)" fill-opacity="0.13"/>
<path d="M295.601 296.896C283.401 296.642 273.691 286.342 274.2 274.156C274.708 262.378 284.265 253.048 296.007 252.997C308.309 252.946 318.069 262.735 317.968 275.176C317.917 287.515 308.004 297.151 295.601 296.896Z" fill="url(#paint23_linear_7:78)" fill-opacity="0.13"/>
<path d="M191.747 32.4277C191.645 44.6136 181.631 54.3011 169.329 54.0971C156.875 53.8932 147.165 43.8488 147.521 31.7649C147.877 20.6498 158.196 10.6054 169.482 10.3504C181.428 10.0955 191.798 20.4458 191.747 32.4277Z" fill="url(#paint24_linear_7:78)" fill-opacity="0.13"/>
<path d="M65.4749 639.12C65.3732 650.847 55.8164 660.126 43.667 660.279C30.806 660.432 21.5542 651.204 21.7067 638.304C21.8592 626.424 31.4668 616.584 43.1078 616.533C54.7489 616.533 65.5765 627.444 65.4749 639.12Z" fill="url(#paint25_linear_7:78)" fill-opacity="0.13"/>
<defs>
<linearGradient id="paint0_linear_7:78" x1="422.325" y1="110.539" x2="422.325" y2="196.711" gradientUnits="userSpaceOnUse">
<stop stop-color="#18A0AA"/>
<stop offset="1" stop-color="#18A0AA" stop-opacity="0"/>
</linearGradient>
<linearGradient id="paint1_linear_7:78" x1="169.812" y1="232.245" x2="169.812" y2="317.856" gradientUnits="userSpaceOnUse">
<stop stop-color="#18A0AA"/>
<stop offset="1" stop-color="#18A0AA" stop-opacity="0"/>
</linearGradient>
<linearGradient id="paint2_linear_7:78" x1="422.355" y1="596.036" x2="422.355" y2="682.001" gradientUnits="userSpaceOnUse">
<stop stop-color="#18A0AA"/>
<stop offset="1" stop-color="#18A0AA" stop-opacity="0"/>
</linearGradient>
<linearGradient id="paint3_linear_7:78" x1="42.955" y1="110.532" x2="42.955" y2="196.707" gradientUnits="userSpaceOnUse">
<stop stop-color="#18A0AA"/>
<stop offset="1" stop-color="#18A0AA" stop-opacity="0"/>
</linearGradient>
<linearGradient id="paint4_linear_7:78" x1="169.838" y1="353.186" x2="169.838" y2="439.407" gradientUnits="userSpaceOnUse">
<stop stop-color="#18A0AA"/>
<stop offset="1" stop-color="#18A0AA" stop-opacity="0"/>
</linearGradient>
<linearGradient id="paint5_linear_7:78" x1="422.355" y1="353.186" x2="422.355" y2="439.456" gradientUnits="userSpaceOnUse">
<stop stop-color="#18A0AA"/>
<stop offset="1" stop-color="#18A0AA" stop-opacity="0"/>
</linearGradient>
<linearGradient id="paint6_linear_7:78" x1="549.291" y1="353.185" x2="549.291" y2="439.405" gradientUnits="userSpaceOnUse">
<stop stop-color="#18A0AA"/>
<stop offset="1" stop-color="#18A0AA" stop-opacity="0"/>
</linearGradient>
<linearGradient id="paint7_linear_7:78" x1="296.312" y1="474.377" x2="296.312" y2="560.091" gradientUnits="userSpaceOnUse">
<stop stop-color="#18A0AA"/>
<stop offset="1" stop-color="#18A0AA" stop-opacity="0"/>
</linearGradient>
<linearGradient id="paint8_linear_7:78" x1="42.9551" y1="232.448" x2="42.9551" y2="317.905" gradientUnits="userSpaceOnUse">
<stop stop-color="#18A0AA"/>
<stop offset="1" stop-color="#18A0AA" stop-opacity="0"/>
</linearGradient>
<linearGradient id="paint9_linear_7:78" x1="422.402" y1="474.381" x2="422.402" y2="560.092" gradientUnits="userSpaceOnUse">
<stop stop-color="#18A0AA"/>
<stop offset="1" stop-color="#18A0AA" stop-opacity="0"/>
</linearGradient>
<linearGradient id="paint10_linear_7:78" x1="422.635" y1="236.014" x2="422.635" y2="314.031" gradientUnits="userSpaceOnUse">
<stop stop-color="#18A0AA"/>
<stop offset="1" stop-color="#18A0AA" stop-opacity="0"/>
</linearGradient>
<linearGradient id="paint11_linear_7:78" x1="296.097" y1="359.54" x2="296.097" y2="432.587" gradientUnits="userSpaceOnUse">
<stop stop-color="#18A0AA"/>
<stop offset="1" stop-color="#18A0AA" stop-opacity="0"/>
</linearGradient>
<linearGradient id="paint12_linear_7:78" x1="169.633" y1="119.216" x2="169.633" y2="188.639" gradientUnits="userSpaceOnUse">
<stop stop-color="#18A0AA"/>
<stop offset="1" stop-color="#18A0AA" stop-opacity="0"/>
</linearGradient>
<linearGradient id="paint13_linear_7:78" x1="548.754" y1="240.401" x2="548.754" y2="309.495" gradientUnits="userSpaceOnUse">
<stop stop-color="#18A0AA"/>
<stop offset="1" stop-color="#18A0AA" stop-opacity="0"/>
</linearGradient>
<linearGradient id="paint14_linear_7:78" x1="296.109" y1="119.155" x2="296.109" y2="188.663" gradientUnits="userSpaceOnUse">
<stop stop-color="#18A0AA"/>
<stop offset="1" stop-color="#18A0AA" stop-opacity="0"/>
</linearGradient>
<linearGradient id="paint15_linear_7:78" x1="675.539" y1="361.443" x2="675.539" y2="431.043" gradientUnits="userSpaceOnUse">
<stop stop-color="#18A0AA"/>
<stop offset="1" stop-color="#18A0AA" stop-opacity="0"/>
</linearGradient>
<linearGradient id="paint16_linear_7:78" x1="296.084" y1="603.929" x2="296.084" y2="672.874" gradientUnits="userSpaceOnUse">
<stop stop-color="#18A0AA"/>
<stop offset="1" stop-color="#18A0AA" stop-opacity="0"/>
</linearGradient>
<linearGradient id="paint17_linear_7:78" x1="169.889" y1="483.906" x2="169.889" y2="550.714" gradientUnits="userSpaceOnUse">
<stop stop-color="#18A0AA"/>
<stop offset="1" stop-color="#18A0AA" stop-opacity="0"/>
</linearGradient>
<linearGradient id="paint18_linear_7:78" x1="296.185" y1="-0.0020752" x2="296.185" y2="65.0084" gradientUnits="userSpaceOnUse">
<stop stop-color="#18A0AA"/>
<stop offset="1" stop-color="#18A0AA" stop-opacity="0"/>
</linearGradient>
<linearGradient id="paint19_linear_7:78" x1="675.103" y1="244.99" x2="675.103" y2="305.516" gradientUnits="userSpaceOnUse">
<stop stop-color="#18A0AA"/>
<stop offset="1" stop-color="#18A0AA" stop-opacity="0"/>
</linearGradient>
<linearGradient id="paint20_linear_7:78" x1="549.039" y1="127.714" x2="549.039" y2="179.427" gradientUnits="userSpaceOnUse">
<stop stop-color="#18A0AA"/>
<stop offset="1" stop-color="#18A0AA" stop-opacity="0"/>
</linearGradient>
<linearGradient id="paint21_linear_7:78" x1="43.4639" y1="493.296" x2="43.4639" y2="542.296" gradientUnits="userSpaceOnUse">
<stop stop-color="#18A0AA"/>
<stop offset="1" stop-color="#18A0AA" stop-opacity="0"/>
</linearGradient>
<linearGradient id="paint22_linear_7:78" x1="549.262" y1="494.255" x2="549.262" y2="540.057" gradientUnits="userSpaceOnUse">
<stop stop-color="#18A0AA"/>
<stop offset="1" stop-color="#18A0AA" stop-opacity="0"/>
</linearGradient>
<linearGradient id="paint23_linear_7:78" x1="296.074" y1="252.997" x2="296.074" y2="296.901" gradientUnits="userSpaceOnUse">
<stop stop-color="#18A0AA"/>
<stop offset="1" stop-color="#18A0AA" stop-opacity="0"/>
</linearGradient>
<linearGradient id="paint24_linear_7:78" x1="169.629" y1="10.3458" x2="169.629" y2="54.1003" gradientUnits="userSpaceOnUse">
<stop stop-color="#18A0AA"/>
<stop offset="1" stop-color="#18A0AA" stop-opacity="0"/>
</linearGradient>
<linearGradient id="paint25_linear_7:78" x1="43.5902" y1="616.533" x2="43.5902" y2="660.281" gradientUnits="userSpaceOnUse">
<stop stop-color="#18A0AA"/>
<stop offset="1" stop-color="#18A0AA" stop-opacity="0"/>
</linearGradient>
</defs>
</svg>
