<svg width="97" height="97" viewBox="0 0 97 97" fill="none" xmlns="http://www.w3.org/2000/svg">
<path d="M24.4925 0C28.9009 0.659092 32.9754 2.00866 36.4821 4.7078C44.5976 10.9849 47.3028 21.4676 42.4268 30.2241C36.7492 40.3929 30.5374 50.3107 24.4925 60.3226C23.3236 62.2371 21.3531 62.0802 20.1174 60.0087C15.2748 51.9741 10.4322 43.9081 5.58965 35.842C3.58581 32.5152 1.44839 29.2825 0.546668 25.4849C-2.35889 13.6526 6.65836 1.60065 19.5163 0.219697C19.8503 0.188312 20.1508 0.094156 20.4848 0C21.8207 0 23.1566 0 24.4925 0ZM22.2883 55.0812C22.6222 54.7046 22.7558 54.5791 22.8226 54.4535C27.9324 45.9481 33.0422 37.4113 38.1185 28.9059C39.7216 26.2381 40.256 23.3507 40.1558 20.3063C39.7884 9.88637 29.1681 2.25974 18.3474 4.67641C6.49137 7.31278 0.980832 19.4903 7.02573 29.7219C10.4322 35.4654 13.9056 41.1775 17.3455 46.921C18.9485 49.5888 20.585 52.2566 22.2883 55.0812Z" fill="#18A0AA"/>
<path d="M32.2749 19.9968C32.2749 25.2067 27.8998 29.4124 22.3893 29.4438C17.0457 29.4751 12.3701 25.1126 12.3701 20.0282C12.3701 14.9437 16.9455 10.5812 22.3225 10.5812C27.833 10.5812 32.2749 14.8182 32.2749 19.9968ZM27.7662 19.9654C27.7328 17.1093 25.3616 14.8496 22.4227 14.8496C19.4503 14.8496 16.9121 17.2663 16.9121 20.0595C16.9121 22.8528 19.4837 25.2695 22.4227 25.2695C25.4284 25.2381 27.7996 22.8842 27.7662 19.9654Z" fill="#18A0AA"/>
<path d="M76.636 34.7623C81.0445 35.4214 85.1189 36.771 88.6256 39.4701C96.7412 45.7472 99.4463 56.2299 94.5703 64.9864C88.8928 75.1552 82.6809 85.073 76.636 95.0849C75.4671 96.9994 73.4967 96.8425 72.261 94.7711C67.4184 86.7364 62.5758 78.6704 57.7332 70.6044C55.7294 67.2775 53.5919 64.0448 52.6902 60.2472C49.7847 48.4149 58.8019 36.363 71.6598 34.982C71.9938 34.9506 72.2944 34.8565 72.6284 34.7623C73.9642 34.7623 75.3001 34.7623 76.636 34.7623ZM74.4318 89.8436C74.7658 89.4669 74.8994 89.3414 74.9662 89.2159C80.0759 80.7104 85.1857 72.1736 90.2621 63.6682C91.8652 61.0005 92.3995 58.113 92.2993 55.0686C91.932 44.6487 81.3116 37.0221 70.4909 39.4387C58.6349 42.0751 53.1244 54.2526 59.1693 64.4842C62.5758 70.2277 66.0491 75.9399 69.489 81.6834C71.0921 84.3511 72.7286 87.0189 74.4318 89.8436Z" fill="#18A0AA"/>
<path d="M84.4223 55.7591C84.4223 60.9691 80.0473 65.1747 74.5367 65.2061C69.1932 65.2375 64.5176 60.8749 64.5176 55.7905C64.5176 50.7061 69.093 46.3435 74.47 46.3435C79.9805 46.3435 84.4223 50.5805 84.4223 55.7591ZM79.9137 55.7277C79.8803 52.8717 77.5091 50.6119 74.5701 50.6119C71.5978 50.6119 69.0596 53.0286 69.0596 55.8219C69.0596 58.6152 71.6312 61.0318 74.5701 61.0318C77.5759 61.0005 79.9471 58.6466 79.9137 55.7277Z" fill="#18A0AA"/>
<rect x="20.8574" y="66.0483" width="5.60656" height="5.60656" fill="#18A0AA"/>
<rect x="62.5723" y="93.8582" width="5.60656" height="5.60656" fill="#18A0AA"/>
<rect x="73.001" y="100.811" width="5.60656" height="5.60656" fill="#18A0AA"/>
<rect x="52.1436" y="86.9058" width="5.60656" height="5.60656" fill="#18A0AA"/>
<rect x="41.7148" y="79.9532" width="5.60656" height="5.60656" fill="#18A0AA"/>
<rect x="31.2861" y="73.0009" width="5.60656" height="5.60656" fill="#18A0AA"/>
</svg>