<svg width="19" height="21" viewBox="0 0 19 21" fill="none" xmlns="http://www.w3.org/2000/svg">
<path d="M8.2163 12.6222C8.2163 11.7488 8.2163 10.8819 8.2163 10.0085C8.2163 7.20717 8.2163 4.40586 8.2163 1.61102C8.2163 1.31343 8.20981 1.00289 8.28116 0.711759C8.39142 0.271831 8.70923 -0.00635908 9.17622 0.000110457C9.64321 0.00657999 9.94805 0.29124 10.0518 0.737637C10.1167 1.02877 10.1102 1.3393 10.1102 1.6369C10.1102 4.98812 10.1102 8.33287 10.1102 11.6841C10.1102 12.0011 10.1102 12.3181 10.3048 12.7192C10.9793 12.0529 11.6539 11.3865 12.3284 10.7201C12.5424 10.5066 12.75 10.2802 12.977 10.0926C13.4116 9.73029 13.898 9.67207 14.3131 10.0926C14.7282 10.5131 14.6633 11.0113 14.2677 11.4188C13.431 12.2858 12.5619 13.1333 11.7057 13.9872C11.1026 14.5889 10.4929 15.1841 9.89616 15.7922C9.38377 16.3163 8.91678 16.2904 8.41088 15.7793C7.01639 14.3754 5.61543 12.978 4.21446 11.5806C3.75395 11.1212 3.501 10.6101 4.03285 10.0796C4.57119 9.54914 5.10303 9.8338 5.54408 10.2737C6.35483 11.0889 7.14611 11.917 7.95037 12.7451C8.04118 12.7063 8.13198 12.661 8.2163 12.6222Z" fill="white"/>
<path d="M9.11632 20.9934C6.5868 20.9934 4.05727 20.9999 1.52775 20.9934C0.353786 20.9934 0.0489457 20.7087 0.0165158 19.5507C-0.00942801 18.5609 -0.00294205 17.5775 0.0230018 16.5877C0.0359737 15.9666 0.256497 15.3843 0.982924 15.3843C1.70935 15.3843 1.9169 15.9666 1.94285 16.5941C1.96879 17.1699 1.99473 17.7522 1.94933 18.3215C1.89096 18.9426 2.11148 19.1302 2.72765 19.1237C5.20529 19.0914 7.67644 19.1108 10.1541 19.1108C11.9701 19.1108 13.7862 19.0849 15.6023 19.1237C16.2314 19.1366 16.4195 18.9232 16.3806 18.315C16.3352 17.6616 16.3676 17.0017 16.413 16.3418C16.4519 15.7919 16.7568 15.3779 17.347 15.3843C17.9372 15.3843 18.255 15.8048 18.268 16.3548C18.3004 17.5581 18.3069 18.7679 18.268 19.9712C18.2421 20.7734 17.6843 21.0063 16.9579 20.9999C14.344 20.9934 11.7302 20.9934 9.11632 20.9934Z" fill="white"/>
</svg>
