<svg width="12" height="15" viewBox="0 0 12 15" fill="none" xmlns="http://www.w3.org/2000/svg">
<g clip-path="url(#clip0)">
<path d="M12.0001 2.98644C12.0074 3.74424 11.8101 4.27916 11.4374 4.76208C9.91728 6.76802 8.38988 8.76654 6.86247 10.7725C6.30705 11.5006 5.75163 12.2286 5.20352 12.9567C5.11582 13.0756 5.0062 13.1573 4.87465 13.2093C3.51533 13.7665 2.16332 14.3386 0.804004 14.9032C0.745539 14.9255 0.694382 14.9478 0.635917 14.9701C0.292433 15.089 -0.0218178 14.8512 0.000106719 14.4798C0.0731883 13.1425 0.14627 11.7977 0.22666 10.4604C0.241276 10.2078 0.270509 9.95525 0.277817 9.70264C0.285125 9.53177 0.350898 9.39804 0.445904 9.27174C2.17063 7.00576 3.88805 4.74722 5.61277 2.48124C5.98549 1.9909 6.3509 1.50799 6.72361 1.01765C7.57867 -0.104198 9.14261 -0.327081 10.2608 0.519873C10.5239 0.720468 10.7943 0.921062 11.05 1.12909C11.6639 1.61943 12.0001 2.33265 12.0001 2.98644ZM6.47514 2.91215C6.40206 2.91958 6.38013 2.98644 6.34359 3.03102C4.72118 5.17069 3.09146 7.30294 1.46905 9.44261C1.39597 9.5392 1.38866 9.5912 1.49828 9.67293C2.4995 10.4307 3.50072 11.196 4.50193 11.9612C4.72849 12.1321 4.67733 12.1172 4.8308 11.9166C6.4386 9.80666 8.04639 7.6967 9.65419 5.59417C9.74188 5.48273 9.73458 5.4233 9.61765 5.33414C8.5945 4.55405 7.57867 3.76653 6.56284 2.97901C6.5336 2.95673 6.50437 2.93444 6.47514 2.91215ZM8.76259 0.943351C8.33872 0.935921 7.98793 1.06965 7.68098 1.33711C7.43251 1.55256 7.27173 1.83488 7.0671 2.08748C7.00132 2.16178 7.07441 2.20635 7.12556 2.2435C8.15601 3.03845 9.18646 3.8334 10.2169 4.62835C10.3046 4.69521 10.3558 4.68035 10.4142 4.59863C10.5239 4.45004 10.6335 4.30888 10.7431 4.16772C11.3131 3.40249 11.1743 2.39209 10.4289 1.80516C10.2023 1.62686 9.96844 1.45598 9.74188 1.27767C9.44225 1.04736 9.11338 0.935921 8.76259 0.943351ZM1.17672 10.5942C1.1621 10.6165 1.1548 10.6239 1.1548 10.6313C1.09633 11.6417 1.04517 12.6521 0.9794 13.6625C0.972092 13.8111 1.03787 13.7963 1.13287 13.7517C1.98062 13.3951 2.83567 13.0385 3.69073 12.6893C3.82958 12.6298 3.80766 12.5927 3.70534 12.5184C3.09146 12.0578 2.48488 11.5897 1.871 11.1217C1.63713 10.9508 1.40327 10.7725 1.17672 10.5942Z" fill="#fff"/>
</g>
<defs>
<clipPath id="clip0">
<rect width="12" height="15" fill="white"/>
</clipPath>
</defs>
</svg>
