<svg width="51" height="35" viewBox="0 0 51 35" fill="none" xmlns="http://www.w3.org/2000/svg">
<path d="M25.3991 0.00622341C18.4133 0.00622341 11.4274 0.00622341 4.44773 0.00622341C2.33674 0.00622341 0.671131 1.26494 0.109825 3.29492C0.0244102 3.59726 0 3.8996 0 4.20811C0 11.7357 0 19.2633 0 26.7848C0 28.0928 0 29.3947 0 30.7028C0 33.029 1.90356 34.9787 4.20979 34.9911C8.43178 35.0034 12.6477 34.9973 16.8697 34.9973C24.6364 34.9973 32.4032 34.9973 40.1699 34.9973C42.3053 34.9973 44.4407 35.0034 46.5761 34.9973C48.2845 34.9911 49.5901 34.2568 50.4626 32.7698C50.8164 32.1713 50.9873 31.5049 50.9873 30.8015C50.9873 26.1863 50.9873 21.571 50.9873 16.9495C50.9812 12.7908 50.9385 8.63829 50.9995 4.48577C51.0361 2.12259 49.163 -0.0122871 46.5639 5.32367e-05C41.9698 0.0247339 37.3756 0.00622341 32.7754 0.00622341C30.3166 0.00622341 27.8578 0.00622341 25.3991 0.00622341ZM45.5634 3.19003C44.7946 3.86875 44.0808 4.49811 43.373 5.12746C41.4207 6.87979 39.4744 8.63829 37.522 10.3906C34.563 13.0438 31.6039 15.6908 28.6388 18.3378C27.9371 18.961 27.2172 19.5657 26.3692 19.9852C25.7712 20.2814 25.1855 20.2937 24.5876 19.9791C23.7274 19.5348 22.9952 18.9178 22.2753 18.2761C20.7744 16.9372 19.2857 15.5859 17.7848 14.247C15.7165 12.3959 13.6422 10.5449 11.5739 8.69382C10.0791 7.36107 8.59042 6.02831 7.09563 4.68938C6.55263 4.20194 6.00963 3.70833 5.42392 3.17769C18.8159 3.19003 32.1469 3.19003 45.5634 3.19003ZM45.4413 31.7949C32.1103 31.7949 18.8586 31.7949 5.54594 31.7949C5.66796 31.6777 5.74728 31.5975 5.82659 31.5235C8.0047 29.5737 10.1828 27.6301 12.3609 25.6803C14.3926 23.8601 16.4182 22.0399 18.4438 20.2135C18.6085 20.0654 18.7305 20.0654 18.8891 20.2074C19.182 20.4788 19.4749 20.7503 19.7799 21.0033C20.4144 21.5463 21.0001 22.151 21.7262 22.589C23.1661 23.459 24.7279 23.7552 26.3875 23.5701C27.5589 23.4405 28.6449 23.058 29.6089 22.3546C30.3959 21.7808 31.0792 21.0897 31.8175 20.4603C32.3117 20.0408 32.3178 20.0284 32.8059 20.4665C35.0816 22.5027 37.3573 24.545 39.6269 26.5811C40.9265 27.7473 42.2321 28.9073 43.5317 30.0735C44.1479 30.6288 44.7641 31.1903 45.4413 31.7949ZM47.7476 29.5798C47.052 28.9505 46.3992 28.3582 45.7525 27.772C44.0259 26.1986 42.2992 24.619 40.5665 23.0456C38.6691 21.318 36.7777 19.5965 34.8741 17.875C34.6789 17.6961 34.685 17.585 34.8802 17.4184C36.5642 15.9314 38.2481 14.4444 39.9259 12.9512C42.0735 11.0508 44.215 9.14425 46.3626 7.23766C46.808 6.84277 47.2595 6.45405 47.7476 6.02831C47.7476 13.9014 47.7476 21.7067 47.7476 29.5798ZM3.22751 6.05916C3.28852 6.09618 3.32512 6.10852 3.34953 6.1332C4.82601 7.44128 6.30249 8.74318 7.77286 10.0513C9.20663 11.3285 10.6404 12.6057 12.0742 13.8768C13.4164 15.0676 14.7648 16.2585 16.1131 17.4431C16.2596 17.5727 16.284 17.6652 16.1253 17.8072C15.6372 18.2391 15.1674 18.6895 14.6794 19.1338C13.0809 20.5899 11.4763 22.0461 9.87775 23.5022C8.03521 25.1805 6.20486 26.865 4.36232 28.5494C3.99625 28.8826 3.62408 29.2096 3.22141 29.5613C3.22751 21.7005 3.22751 13.8953 3.22751 6.05916Z" fill="#16538C"/>
</svg>
