<svg version="1.2" baseProfile="tiny-ps" xmlns="http://www.w3.org/2000/svg" viewBox="0 0 30 20" width="350" height="233">
	<title>image</title>
	<defs>
		<linearGradient id="grd1" gradientUnits="userSpaceOnUse"  x1="14.816" y1="0" x2="14.816" y2="20">
			<stop offset="0" stop-color="#18a0aa"  />
			<stop offset="1" stop-color="#18a0aa"  />
		</linearGradient>
	</defs>
	<style>
		tspan { white-space:pre }
		.shp0 { fill: url(#grd1) } 
	</style>
	<path id="Layer" fill-rule="evenodd" class="shp0" d="M19.03 0C21.69 0 24.36 0.01 27.02 0C28.52 -0.01 29.61 1.21 29.59 2.56C29.55 4.94 29.57 7.31 29.58 9.69C29.58 12.33 29.58 14.96 29.58 17.6C29.58 18 29.48 18.38 29.27 18.73C28.77 19.58 28.01 19.99 27.02 20C25.79 20 24.55 20 23.31 20C18.81 20 14.32 20 9.82 20C7.37 20 4.93 20 2.48 19.99C1.15 19.99 0.05 18.87 0.05 17.54C0.05 16.8 0.05 16.05 0.05 15.31C0.05 11.01 0.05 6.71 0.05 2.4C0.05 2.23 0.06 2.06 0.11 1.88C0.43 0.72 1.4 0 2.62 0C6.66 0 10.71 0 14.76 0C16.18 0 17.61 0 19.03 0ZM3.19 1.82C3.53 2.12 3.84 2.4 4.16 2.68C5.02 3.44 5.88 4.21 6.75 4.97C7.95 6.03 9.15 7.08 10.35 8.14C11.22 8.91 12.08 9.68 12.95 10.44C13.37 10.81 13.79 11.16 14.29 11.42C14.63 11.6 14.97 11.59 15.32 11.42C15.81 11.18 16.23 10.83 16.63 10.48C18.35 8.97 20.07 7.45 21.78 5.94C22.91 4.94 24.04 3.93 25.17 2.93C25.58 2.57 25.99 2.21 26.44 1.82C18.67 1.82 10.94 1.82 3.19 1.82ZM25.26 17.18C24.51 16.52 23.75 15.86 23 15.19C21.68 14.03 20.37 12.86 19.05 11.7C18.76 11.44 18.76 11.45 18.48 11.69C18.05 12.05 17.65 12.45 17.2 12.77C16.64 13.18 16.01 13.39 15.33 13.47C14.37 13.57 13.46 13.41 12.63 12.91C12.21 12.66 11.87 12.31 11.5 12C11.33 11.86 11.16 11.7 10.99 11.55C10.89 11.47 10.82 11.47 10.73 11.55C9.56 12.59 8.38 13.63 7.21 14.67C5.94 15.79 4.68 16.9 3.42 18.01C3.37 18.06 3.33 18.1 3.26 18.17C10.97 18.17 18.64 18.17 26.37 18.17C25.97 17.82 25.62 17.5 25.26 17.18ZM27.7 3.44C27.42 3.69 27.16 3.91 26.9 4.14C25.66 5.23 24.42 6.31 23.17 7.4C22.2 8.25 21.22 9.1 20.25 9.95C20.14 10.05 20.13 10.11 20.25 10.21C21.35 11.2 22.44 12.18 23.54 13.17C24.55 14.07 25.55 14.97 26.55 15.87C26.92 16.2 27.3 16.54 27.7 16.9C27.7 12.4 27.7 7.94 27.7 3.44ZM1.91 16.89C2.15 16.69 2.36 16.5 2.57 16.31C3.64 15.35 4.7 14.39 5.77 13.43C6.69 12.6 7.62 11.77 8.55 10.93C8.83 10.68 9.1 10.42 9.39 10.18C9.48 10.09 9.46 10.04 9.38 9.97C8.6 9.29 7.82 8.61 7.04 7.93C6.21 7.2 5.38 6.47 4.55 5.74C3.7 5 2.84 4.25 1.99 3.5C1.97 3.49 1.95 3.48 1.92 3.46C1.92 7.94 1.92 12.4 1.91 16.89Z" />
</svg>
