<svg width="43" height="42" viewBox="0 0 43 42" fill="none" xmlns="http://www.w3.org/2000/svg">
<path fill-rule="evenodd" clip-rule="evenodd" d="M8.6 0C6.31914 0 4.13169 0.884998 2.51888 2.4603C0.906069 4.03561 0 6.17218 0 8.4V33.6C0 35.8278 0.906069 37.9644 2.51888 39.5397C4.13169 41.115 6.31914 42 8.6 42H34.4C36.6809 42 38.8683 41.115 40.4811 39.5397C42.0939 37.9644 43 35.8278 43 33.6V8.4C43 6.17218 42.0939 4.03561 40.4811 2.4603C38.8683 0.884998 36.6809 0 34.4 0H8.6ZM4.3 8.4C4.3 7.28609 4.75303 6.2178 5.55944 5.43015C6.36585 4.6425 7.45957 4.2 8.6 4.2H34.4C35.5404 4.2 36.6342 4.6425 37.4406 5.43015C38.247 6.2178 38.7 7.28609 38.7 8.4V33.6C38.7 34.7139 38.247 35.7822 37.4406 36.5698C36.6342 37.3575 35.5404 37.8 34.4 37.8H8.6C7.45957 37.8 6.36585 37.3575 5.55944 36.5698C4.75303 35.7822 4.3 34.7139 4.3 33.6V8.4ZM15.05 18.9C15.05 18.343 14.8235 17.8089 14.4203 17.4151C14.0171 17.0212 13.4702 16.8 12.9 16.8C12.3298 16.8 11.7829 17.0212 11.3797 17.4151C10.9765 17.8089 10.75 18.343 10.75 18.9V31.5C10.75 32.057 10.9765 32.5911 11.3797 32.9849C11.7829 33.3787 12.3298 33.6 12.9 33.6C13.4702 33.6 14.0171 33.3787 14.4203 32.9849C14.8235 32.5911 15.05 32.057 15.05 31.5V18.9ZM16.125 11.55C16.125 12.3854 15.7852 13.1866 15.1804 13.7774C14.5756 14.3681 13.7553 14.7 12.9 14.7C12.0447 14.7 11.2244 14.3681 10.6196 13.7774C10.0148 13.1866 9.675 12.3854 9.675 11.55C9.675 10.7146 10.0148 9.91335 10.6196 9.32261C11.2244 8.73187 12.0447 8.4 12.9 8.4C13.7553 8.4 14.5756 8.73187 15.1804 9.32261C15.7852 9.91335 16.125 10.7146 16.125 11.55ZM21.5 16.8C22.231 16.8 22.876 17.157 23.263 17.6988C24.3711 17.1089 25.613 16.7999 26.875 16.8C31.519 16.8 34.4 20.8446 34.4 24.2991V31.5C34.4 32.057 34.1735 32.5911 33.7703 32.9849C33.3671 33.3787 32.8202 33.6 32.25 33.6C31.6798 33.6 31.1329 33.3787 30.7297 32.9849C30.3265 32.5911 30.1 32.057 30.1 31.5V24.297C30.1 22.6842 28.681 20.9979 26.875 20.9979C25.7484 20.9979 24.5036 21.5964 23.65 23.0202V31.5C23.65 32.057 23.4235 32.5911 23.0203 32.9849C22.6171 33.3787 22.0702 33.6 21.5 33.6C20.9298 33.6 20.3829 33.3787 19.9797 32.9849C19.5765 32.5911 19.35 32.057 19.35 31.5V18.9C19.35 18.343 19.5765 17.8089 19.9797 17.4151C20.3829 17.0212 20.9298 16.8 21.5 16.8Z" fill="#16538C"/>
</svg>