<svg width="20" height="28" viewBox="0 0 20 28" fill="none" xmlns="http://www.w3.org/2000/svg">
<path fill="#18a0aa" d="M10.9282 0C12.8939 0.299237 14.7108 0.911959 16.2744 2.1374C19.8932 4.98728 21.0994 9.74656 18.9252 13.7221C16.3936 18.3389 13.6236 22.8417 10.9282 27.3873C10.407 28.2565 9.52833 28.1852 8.97733 27.2448C6.81798 23.5969 4.65864 19.9349 2.49929 16.2728C1.60577 14.7623 0.652683 13.2947 0.250599 11.5705C-1.04501 6.19847 2.97584 0.726717 8.70927 0.0997455C8.85819 0.0854962 8.99222 0.0427481 9.14114 0C9.73682 0 10.3325 0 10.9282 0ZM9.94531 25.0076C10.0942 24.8366 10.1538 24.7796 10.1836 24.7226C12.4621 20.8611 14.7405 16.9852 17.0041 13.1237C17.7189 11.9125 17.9572 10.6015 17.9125 9.21934C17.7487 4.48855 13.0131 1.02595 8.18805 2.12315C2.90138 3.3201 0.444195 8.84885 3.13965 13.4941C4.65864 16.1018 6.20741 18.6952 7.74129 21.3028C8.45611 22.514 9.18582 23.7252 9.94531 25.0076Z"/>
<path fill="#18a0aa" d="M14.3991 9.53282C14.3991 11.8982 12.4482 13.8076 9.99105 13.8219C7.60832 13.8361 5.52344 11.8555 5.52344 9.54707C5.52344 7.23867 7.56365 5.25801 9.96126 5.25801C12.4184 5.25801 14.3991 7.18168 14.3991 9.53282ZM12.3887 9.51857C12.3738 8.22188 11.3164 7.19593 10.0059 7.19593C8.68055 7.19593 7.54875 8.29313 7.54875 9.56132C7.54875 10.8295 8.69544 11.9267 10.0059 11.9267C11.3462 11.9125 12.4036 10.8438 12.3887 9.51857Z"/>
<defs>
</defs>
</svg>
