<svg width="462" height="553" viewBox="0 0 462 553" fill="none" xmlns="http://www.w3.org/2000/svg">
<path d="M362.282 339.998C361.653 344.051 361.073 348.112 360.38 352.158C350.711 408.638 306.463 453.905 250.114 464.156C208.808 471.668 171.457 462.026 138.426 436.085C135.76 433.992 134.225 434.041 132.054 436.475C129.154 439.714 125.992 442.728 122.845 445.727C121.395 447.107 121.388 448.133 122.859 449.477C124.854 451.302 126.77 453.226 128.588 455.228C132.549 459.593 132.641 465.217 128.722 469.603C125.752 472.934 122.633 476.146 119.471 479.308C97.029 501.79 74.5585 524.25 52.1022 546.717C50.2703 548.55 48.4314 550.375 46.0619 551.535C41.9455 553.558 37.2421 553.006 33.6562 549.49C23.6551 539.693 13.7249 529.817 3.96431 519.786C-0.703775 514.99 -0.449152 508.793 4.30381 504.032C30.4804 477.794 56.6925 451.592 82.9257 425.411C87.912 420.438 93.733 420.529 98.8396 425.432C99.7732 426.33 100.679 427.257 101.591 428.17C105.757 432.329 105.757 432.336 110.043 428.049C112.54 425.552 114.959 422.977 117.554 420.586C119.429 418.86 119.358 417.53 117.752 415.549C104.866 399.71 95.5649 381.954 90.9534 362.041C80.5138 316.915 89.6449 276.027 119.245 240.31C142.316 212.473 172.327 196.641 208.158 191.845C210.124 191.583 212.189 192.008 214.049 191.017C221.108 191.017 228.167 191.017 235.225 191.017C236.018 191.222 236.796 191.548 237.595 191.612C249.626 192.574 261.338 195.071 272.535 199.556C319.166 218.26 348.306 252.074 359.609 301.097C360.846 306.453 361.405 311.963 362.282 317.403C362.282 324.937 362.282 332.464 362.282 339.998ZM224.482 212.261C160.317 212.827 108.445 263.866 108.381 328.531C108.317 393.33 160.14 444.907 224.609 444.928C289.191 444.942 340.915 393.266 340.873 328.573C340.83 263.711 288.626 212.544 224.482 212.261ZM41.0331 525.743C42.2285 525.813 42.7589 525.113 43.3248 524.547C63.3622 504.52 83.3713 484.472 103.437 464.481C105 462.918 104.837 461.863 103.345 460.427C99.7874 457.004 96.2863 453.516 92.8772 449.951C91.3848 448.387 90.3239 448.472 88.8244 449.972C68.9143 469.956 48.9689 489.905 28.9951 509.826C27.5735 511.248 27.1774 512.316 28.8183 513.886C32.4679 517.381 35.9831 521.017 39.5691 524.575C40.0571 525.056 40.6441 525.438 41.0331 525.743Z" fill="url(#paint0_linear_0_1)"/>
<path d="M280.363 283.571C280.307 287.348 278.468 290.107 275.971 292.597C264.895 303.64 253.904 314.767 242.75 325.725C240.48 327.96 240.317 329.312 242.686 331.632C254.109 342.823 265.369 354.184 276.643 365.517C279.748 368.637 281.276 372.308 279.798 376.743C278.411 380.91 275.49 383.429 271.225 384.249C266.974 385.07 263.735 383.075 260.864 380.196C249.901 369.202 238.924 358.231 227.946 347.259C224.629 343.941 224.615 343.941 221.39 347.16C210.25 358.301 199.139 369.478 187.949 380.571C183.02 385.459 177.071 385.742 172.517 381.54C167.573 376.97 167.58 370.582 172.75 365.361C183.423 354.58 194.188 343.891 204.91 333.167C205.575 332.502 206.183 331.759 206.919 331.186C209.203 329.411 208.751 327.96 206.841 326.072C195.8 315.163 184.859 304.156 173.896 293.163C172.821 292.088 171.731 290.977 170.876 289.732C167.806 285.268 168.344 280.055 172.163 276.228C175.975 272.415 181.188 271.87 185.665 274.94C186.91 275.796 188.02 276.885 189.095 277.961C199.839 288.671 210.554 299.402 221.284 310.127C224.608 313.452 224.622 313.452 227.847 310.233C238.994 299.098 250.099 287.914 261.295 276.829C266.67 271.502 273.51 271.714 277.93 277.147C279.486 279.057 280.165 281.271 280.363 283.571Z" fill="url(#paint1_linear_0_1)"/>
<circle cx="166.666" cy="265.565" r="135.475" fill="#16538C" fill-opacity="0.08"/>
<circle cx="243.886" cy="55.579" r="55.5446" fill="#16538C" fill-opacity="0.08"/>
<circle cx="392.907" cy="120.607" r="69.092" fill="#16538C" fill-opacity="0.08"/>
<defs>
<linearGradient id="paint0_linear_0_1" x1="181.44" y1="191.017" x2="181.44" y2="552.704" gradientUnits="userSpaceOnUse">
<stop offset="0.265625" stop-color="#18A0AA"/>
<stop offset="1" stop-color="#16538C"/>
</linearGradient>
<linearGradient id="paint1_linear_0_1" x1="224.603" y1="272.951" x2="224.603" y2="384.48" gradientUnits="userSpaceOnUse">
<stop offset="0.265625" stop-color="#18A0AA"/>
<stop offset="1" stop-color="#16538C"/>
</linearGradient>
</defs>
</svg>