<svg width="28" height="28" viewBox="0 0 28 28" fill="none" xmlns="http://www.w3.org/2000/svg">
    <path fill="#18a0aa" d="M10.7417 17.2585C13.4461 19.9628 15.9579 21.4702 17.8269 22.3078C19.4591 23.0393 21.3852 22.4653 22.8867 20.9638L23.2297 20.6197L19.1044 17.9947C18.3204 19.138 16.8376 19.8088 15.3571 19.1847C14.2359 18.711 12.7519 17.9013 11.4254 16.5748C10.0989 15.2483 9.29041 13.7643 8.81675 12.6432C8.19141 11.1627 8.86108 9.67983 10.0056 8.89583L7.38058 4.7705L7.03641 5.1135C5.53491 6.615 4.96208 8.54117 5.69241 10.1733C6.53008 12.0423 8.03741 14.5542 10.7417 17.2585ZM16.8737 24.437C14.7562 23.4885 12.0064 21.8225 9.09208 18.9082C6.17775 15.995 4.51175 13.244 3.56208 11.1265C2.30791 8.3265 3.45358 5.39817 5.38675 3.46383L5.72975 3.11967C5.97678 2.87247 6.27619 2.68392 6.60586 2.56794C6.93553 2.45197 7.28704 2.41152 7.63443 2.4496C7.98182 2.48767 8.31623 2.6033 8.61295 2.78793C8.90967 2.97257 9.16112 3.22149 9.34875 3.51633L12.6504 8.708C12.7379 8.84571 12.7955 9.00024 12.8195 9.16159C12.8435 9.32294 12.8334 9.48754 12.7899 9.64476C12.7464 9.80197 12.6703 9.94831 12.5667 10.0743C12.4631 10.2003 12.3342 10.3032 12.1884 10.3763L11.4499 10.7462C10.9459 10.9982 10.8432 11.4427 10.9657 11.7355C11.3612 12.6723 12.0227 13.8717 13.0751 14.9252C14.1286 15.9775 15.3279 16.639 16.2647 17.0345C16.5576 17.1582 17.0021 17.0543 17.2541 16.5503L17.6239 15.8118C17.6969 15.6659 17.7997 15.5369 17.9257 15.4332C18.0517 15.3295 18.198 15.2533 18.3552 15.2097C18.5124 15.166 18.6771 15.1558 18.8385 15.1798C18.9999 15.2037 19.1545 15.2613 19.2922 15.3487L24.4839 18.6515C24.7788 18.8391 25.0277 19.0906 25.2123 19.3873C25.3969 19.684 25.5126 20.0184 25.5506 20.3658C25.5887 20.7132 25.5483 21.0647 25.4323 21.3944C25.3163 21.7241 25.1278 22.0235 24.8806 22.2705L24.5364 22.6135C22.6032 24.5478 19.6749 25.6923 16.8737 24.437Z"/>
</svg>