<svg width="14" height="12" viewBox="0 0 14 12" fill="none" xmlns="http://www.w3.org/2000/svg">
<path fill-rule="evenodd" clip-rule="evenodd" d="M7.25628 11.7489C6.91457 11.4142 6.91457 10.8715 7.25628 10.5368L11.0126 6.85714L0.875 6.85714C0.391751 6.85714 4.83152e-07 6.47339 5.24537e-07 6C5.65921e-07 5.52661 0.391751 5.14286 0.875001 5.14286L11.0126 5.14286L7.25628 1.46323C6.91457 1.1285 6.91457 0.585785 7.25628 0.25105C7.59799 -0.0836845 8.15201 -0.0836845 8.49372 0.25105L13.7437 5.39391C13.9078 5.55465 14 5.77267 14 6C14 6.22733 13.9078 6.44535 13.7437 6.60609L8.49372 11.7489C8.15201 12.0837 7.59799 12.0837 7.25628 11.7489Z" fill="#18A0AA"/>
</svg>