<svg id="Group_36" data-name="Group 36" xmlns="http://www.w3.org/2000/svg" viewBox="0 0 283.54 58.04">
  <defs>
    <style>
      .cls-1 {
        fill: #fff;
      }

      .cls-2 {
        fill: #00a0ab;
      }
    </style>
  </defs>
  <path id="Path_127" data-name="Path 127" class="cls-1" d="M170.354,4.6H188.6c10.991,0,18.246,5.847,18.246,15.485v.162c0,10.5-8.771,15.972-19.166,15.972H175.822V53.436H170.3V4.6ZM187.9,31.129c8.067,0,13.373-4.331,13.373-10.72v-.162c0-6.984-5.2-10.558-13.1-10.558H175.822v21.44Z" transform="translate(-78.097 -2.109)"/>
  <path id="Path_128" data-name="Path 128" class="cls-1" d="M259.4,45.639l3.411-4.061c5.089,4.6,9.962,6.876,16.73,6.876,6.551,0,10.882-3.465,10.882-8.284v-.162c0-4.548-2.436-7.093-12.669-9.258-11.262-2.382-16.4-5.956-16.4-13.969v-.162c0-7.634,6.768-13.319,16.026-13.319a25.193,25.193,0,0,1,17.109,6.01l-3.194,4.223c-4.548-3.682-9.042-5.306-14.077-5.306-6.335,0-10.4,3.465-10.4,7.851v.162c0,4.6,2.49,7.147,13.211,9.475,10.883,2.382,15.863,6.335,15.863,13.806v.162c0,8.338-6.984,13.806-16.621,13.806a28.643,28.643,0,0,1-19.87-7.851" transform="translate(-118.956 -1.513)"/>
  <path id="Path_129" data-name="Path 129" class="cls-1" d="M364.651,9.689H348.3V4.6h38.278V9.689H370.227V53.382h-5.577Z" transform="translate(-159.725 -2.109)"/>
  <path id="Path_130" data-name="Path 130" class="cls-1" d="M447.1,4.6h5.468V33.728L480.614,4.6h7.093l-20.9,21.332,21.765,27.45H481.7L462.964,29.776l-10.4,10.5v13.1H447.1Z" transform="translate(-205.033 -2.109)"/>
  <path id="Path_131" data-name="Path 131" class="cls-2" d="M55.022,13.752V.92A.913.913,0,0,0,54.1,0H49.12a.913.913,0,0,0-.92.92V13.7a.913.913,0,0,0,.92.92H54.1a.868.868,0,0,0,.92-.866" transform="translate(-22.104)"/>
  <path id="Path_132" data-name="Path 132" class="cls-2" d="M79.122,28.528V18.62a.913.913,0,0,0-.92-.92H73.22a.913.913,0,0,0-.92.92v9.908a.913.913,0,0,0,.92.92H78.2a.88.88,0,0,0,.92-.92" transform="translate(-33.156 -8.117)"/>
  <path id="Path_133" data-name="Path 133" class="cls-2" d="M103.122,42.074V30.92a.913.913,0,0,0-.92-.92H97.22a.913.913,0,0,0-.92.92v11.1a.913.913,0,0,0,.92.92H102.2a.837.837,0,0,0,.92-.866" transform="translate(-44.162 -13.757)"/>
  <path id="Path_134" data-name="Path 134" class="cls-2" d="M30.976,28.691V18.458a.74.74,0,0,0-.758-.758h-5.36a.74.74,0,0,0-.758.758V28.691a.74.74,0,0,0,.758.758h5.36a.739.739,0,0,0,.758-.758" transform="translate(-11.052 -8.117)"/>
  <path id="Path_135" data-name="Path 135" class="cls-2" d="M6.876,42.074V30.92a.913.913,0,0,0-.92-.92H.92a.913.913,0,0,0-.92.92v11.1a.913.913,0,0,0,.92.92H5.956a.813.813,0,0,0,.92-.866" transform="translate(0 -13.757)"/>
  <path id="Path_136" data-name="Path 136" class="cls-1" d="M72.1,47.017V68.727a.913.913,0,0,0,.92.92H78a.913.913,0,0,0,.92-.92V47.017A.913.913,0,0,0,78,46.1H73.02a.88.88,0,0,0-.92.92" transform="translate(-33.064 -21.137)"/>
  <path id="Path_137" data-name="Path 137" class="cls-1" d="M48.1,34.62V72.574a.913.913,0,0,0,.92.92H54a.913.913,0,0,0,.92-.92V34.62A.913.913,0,0,0,54,33.7H49.02a.949.949,0,0,0-.92.92" transform="translate(-22.058 -15.454)"/>
  <path id="Path_138" data-name="Path 138" class="cls-1" d="M96.2,61.617v7.093a.913.913,0,0,0,.92.92H102.1a.913.913,0,0,0,.92-.92V61.617a.913.913,0,0,0-.92-.92H97.12a.853.853,0,0,0-.92.92" transform="translate(-44.116 -27.832)"/>
  <path id="Path_139" data-name="Path 139" class="cls-1" d="M24,47.017V68.727a.913.913,0,0,0,.92.92h5.035a.913.913,0,0,0,.92-.92V47.017a.913.913,0,0,0-.92-.92H24.975a.9.9,0,0,0-.975.92" transform="translate(-11.006 -21.137)"/>
  <path id="Path_140" data-name="Path 140" class="cls-1" d="M0,61.617v7.093a.913.913,0,0,0,.92.92H5.956a.913.913,0,0,0,.92-.92V61.617a.913.913,0,0,0-.92-.92H.92a.88.88,0,0,0-.92.92" transform="translate(0 -27.832)"/>
</svg>
