<svg version="1.2" xmlns="http://www.w3.org/2000/svg" width="402" height="109" fill="#18a0aa">
	<path id="Layer" fill-rule="evenodd" d="M0.96 2.7L47.9 2.7C75.61 2.7 94.53 15.07 94.53 39.8L94.53 40.1C94.53 65.28 75.31 78.69 47.15 78.69L35.83 78.69L35.83 107L0.96 107L0.96 2.7ZM45.21 53.81C54.15 53.81 60.11 49.78 60.11 42.33L60.11 42.04C60.11 34.44 54.6 30.56 45.36 30.56L35.83 30.56L35.83 53.81L45.21 53.81ZM92.7 91.36L111.33 69.15C122.65 77.8 135.62 81.37 147.83 81.37C154.09 81.37 156.77 79.73 156.77 76.9L156.77 76.6C156.77 73.62 153.5 71.98 142.32 69.75C118.93 64.98 98.37 58.28 98.37 36.23L98.37 35.93C98.37 16.11 113.86 0.76 142.62 0.76C162.73 0.76 177.63 5.53 189.7 15.07L172.72 38.61C162.88 31.46 151.11 28.33 141.43 28.33C136.21 28.33 133.83 30.12 133.83 32.65L133.83 32.95C133.83 35.78 136.66 37.57 147.69 39.65C174.36 44.57 192.24 52.32 192.24 73.33L192.24 73.62C192.24 95.53 174.21 108.94 146.19 108.94C125.04 108.94 105.97 102.98 92.7 91.36ZM222.58 32.2L191.89 32.2L191.89 2.7L288.14 2.7L288.14 32.2L257.45 32.2L257.45 107L222.58 107L222.58 32.2ZM295.43 2.7L330.29 2.7L330.29 41.74L359.94 2.7L400.47 2.7L364.12 48L401.22 107L359.64 107L339.23 73.92L330.29 84.8L330.29 107L295.43 107L295.43 2.7Z" />
</svg>