<svg version="1.2" xmlns="http://www.w3.org/2000/svg" width="402" height="109" fill="#18a0aa">
<path id="Layer" fill-rule="evenodd" d="M-0.04 108L-0.04 1.7L47.9 1.7C61.88 1.7 73.78 4.82 82.21 11.18C90.67 17.57 95.53 27.15 95.53 39.8L95.53 40.1C95.53 52.97 90.6 62.92 82.02 69.63C73.46 76.31 61.37 79.69 47.15 79.69L36.83 79.69L36.83 108L-0.04 108ZM34.83 106L34.83 77.69L47.15 77.69C61.09 77.69 72.69 74.37 80.79 68.05C88.85 61.75 93.53 52.41 93.53 40.1L93.53 39.8C93.53 27.72 88.93 18.75 81 12.77C73.04 6.77 61.62 3.7 47.9 3.7L1.96 3.7L1.96 106L34.83 106ZM34.83 54.81L34.83 29.56L45.36 29.56C50.1 29.56 54.03 30.55 56.81 32.65C59.62 34.79 61.11 37.97 61.11 42.04L61.11 42.33C61.11 46.36 59.49 49.53 56.61 51.67C53.78 53.77 49.82 54.81 45.21 54.81L34.83 54.81ZM55.42 50.06C57.76 48.32 59.11 45.76 59.11 42.33L59.11 42.04C59.11 38.51 57.85 35.95 55.6 34.25C53.3 32.51 49.86 31.56 45.36 31.56L36.83 31.56L36.83 52.81L45.21 52.81C49.55 52.81 53.04 51.83 55.42 50.06ZM147.5 40.64L147.5 40.63C141.99 39.59 138.39 38.6 136.17 37.47C135.04 36.9 134.2 36.26 133.64 35.49C133.06 34.7 132.83 33.84 132.83 32.95L132.83 32.65C132.83 31.01 133.63 29.62 135.15 28.69C136.62 27.79 138.73 27.33 141.43 27.33C151.04 27.33 162.64 30.34 172.49 37.22L188.33 15.26C176.61 6.29 162.14 1.76 142.62 1.76C128.41 1.76 117.6 5.55 110.36 11.68C103.12 17.79 99.37 26.3 99.37 35.93L99.37 36.23C99.37 46.85 104.28 53.74 112.1 58.62C120 63.54 130.82 66.39 142.52 68.77L142.52 68.77C148.1 69.89 151.83 70.87 154.17 72C155.35 72.56 156.26 73.2 156.87 73.97C157.5 74.77 157.77 75.65 157.77 76.6L157.77 76.9C157.77 77.77 157.57 78.6 157.1 79.33C156.64 80.06 155.97 80.64 155.12 81.08C153.45 81.96 151.02 82.37 147.83 82.37C135.7 82.37 122.82 78.9 111.49 70.52L94.1 91.24C107.1 102.25 125.6 107.94 146.19 107.94C160.06 107.94 171.33 104.62 179.12 98.7C186.87 92.8 191.24 84.27 191.24 73.62L191.24 73.33C191.24 63.18 186.95 56.29 179.41 51.29C171.79 46.23 160.82 43.09 147.5 40.64L147.69 39.65L147.67 39.76L147.5 40.64ZM91.31 91.46L91.94 90.71L110.56 68.51L111.18 67.78L111.94 68.36L111.33 69.15L111.33 69.15L111.94 68.36C123.07 76.85 135.81 80.37 147.83 80.37C150.91 80.37 152.95 79.96 154.19 79.31C154.79 79 155.18 78.64 155.41 78.26C155.65 77.89 155.77 77.45 155.77 76.9L155.77 76.6C155.77 76.07 155.63 75.63 155.3 75.21C154.95 74.77 154.34 74.3 153.31 73.8C151.22 72.8 147.72 71.85 142.13 70.73L142.32 69.75L142.29 69.88L142.32 69.75L142.12 70.73C130.43 68.35 119.28 65.45 111.04 60.32C102.73 55.14 97.37 47.65 97.37 36.23L97.37 35.93C97.37 25.74 101.36 16.66 109.06 10.15C116.76 3.65 128.07 -0.24 142.62 -0.24C162.91 -0.24 178.04 4.58 190.32 14.28L190.89 14.73L190.89 1.7L289.14 1.7L289.14 33.2L258.45 33.2L258.45 108L221.58 108L221.58 33.2L190.89 33.2L190.89 15.13L190.51 15.65L173.53 39.19L172.94 40.01L172.13 39.42C162.48 32.4 150.92 29.33 141.43 29.33C138.91 29.33 137.22 29.76 136.19 30.39C135.22 30.99 134.83 31.76 134.83 32.65L134.83 32.95C134.83 33.47 134.95 33.9 135.25 34.31C135.56 34.73 136.11 35.2 137.08 35.69C139.02 36.68 142.36 37.63 147.87 38.67L147.87 38.67C161.22 41.13 172.53 44.32 180.51 49.62C188.58 54.97 193.24 62.46 193.24 73.33L193.24 73.62C193.24 84.88 188.59 94.01 180.33 100.29C172.09 106.55 160.35 109.94 146.19 109.94C124.86 109.94 105.53 103.93 92.05 92.11L91.31 91.46ZM256.45 106L256.45 31.2L287.14 31.2L287.14 3.7L192.89 3.7L192.89 31.2L223.58 31.2L223.58 106L256.45 106ZM142.12 70.73L142.29 69.88L142.13 70.73L142.12 70.73ZM294.43 108L294.43 1.7L331.29 1.7L331.29 38.77L359.15 2.1L359.45 1.7L402.56 1.7L401.25 3.33L400.47 2.7L400.47 2.7L401.25 3.33L365.34 48.07L402.06 106.47L401.22 107L401.22 107L402.06 106.47L403.03 108L359.09 108L358.79 107.53L339.12 75.64L331.29 85.16L331.29 108L294.43 108ZM329.29 106L329.29 84.44L329.52 84.16L338.46 73.29L339.23 73.92L339.23 73.92L338.46 73.29L339.35 72.21L340.08 73.4L360.2 106L399.41 106L363.27 48.53L362.89 47.93L363.33 47.37L364.11 48L364.11 48L363.33 47.37L398.39 3.7L360.44 3.7L331.09 42.34L330.29 41.74L330.29 41.74L331.09 42.34L329.29 44.71L329.29 3.7L296.43 3.7L296.43 106L329.29 106Z" />
</svg>