<svg width="44" height="38" viewBox="0 0 44 38" fill="none" xmlns="http://www.w3.org/2000/svg">
<path d="M26.4822 19.0011C26.4822 13.3803 26.4822 7.74847 26.4822 2.12766C26.4822 1.44301 26.681 0.857736 27.2221 0.438109C27.8405 -0.0477762 28.5362 -0.136119 29.254 0.206209C29.9828 0.548537 30.3362 1.14485 30.3804 1.93993C30.3804 2.00619 30.3804 2.08349 30.3804 2.14975C30.3804 13.3803 30.3804 24.6219 30.3804 35.8525C30.3804 36.6917 30.0822 37.3543 29.3313 37.7629C28.0834 38.4365 26.5595 37.5752 26.4822 36.1617C26.4712 36.0181 26.4712 35.8746 26.4712 35.731C26.4822 30.1544 26.4822 24.5778 26.4822 19.0011Z" fill="#18A0AA"/>
<path d="M23.744 19.0233C23.744 23.0428 23.744 27.0624 23.744 31.082C23.744 32.098 23.1587 32.8599 22.2201 33.0697C21.0385 33.3458 19.8901 32.4513 19.8569 31.2366C19.8569 31.1704 19.8569 31.0931 19.8569 31.0268C19.8569 23.0097 19.8569 14.9816 19.8569 6.96447C19.8569 6.13626 20.1661 5.49577 20.895 5.10928C22.1649 4.42462 23.733 5.34118 23.744 6.78779C23.7661 8.95218 23.7551 11.1055 23.7551 13.2699C23.744 15.1803 23.744 17.1018 23.744 19.0233Z" fill="#16538C"/>
<path d="M6.62239 18.9791C6.62239 15.7877 6.62239 12.5853 6.62239 9.39391C6.62239 8.46631 7.05306 7.78166 7.81502 7.46141C9.0739 6.93136 10.4543 7.81478 10.5205 9.19514C10.5205 9.2614 10.5205 9.31661 10.5205 9.38287C10.5205 15.7877 10.5205 22.2036 10.5205 28.6084C10.5205 29.536 10.0457 30.2649 9.25059 30.552C8.00274 31.0158 6.6776 30.1434 6.63343 28.8293C6.61135 28.0784 6.62239 27.3275 6.62239 26.5766C6.62239 24.0478 6.62239 21.5079 6.62239 18.9791Z" fill="#16538C"/>
<path d="M36.9919 19.001C36.9919 22.1924 36.9919 25.3948 36.9919 28.5862C36.9919 29.3702 36.7158 29.9996 36.0422 30.3972C34.7723 31.1591 33.1821 30.2868 33.0938 28.807C33.0938 28.7408 33.0938 28.6856 33.0938 28.6193C33.0938 22.2034 33.0938 15.7875 33.0938 9.37163C33.0938 8.4109 33.6017 7.68208 34.4741 7.40601C35.6557 7.01951 36.9256 7.89189 36.9808 9.12869C37.0029 9.55936 36.9919 10.0011 36.9919 10.4317C36.9919 13.2808 36.9919 16.1409 36.9919 19.001Z" fill="#16538C"/>
<path d="M17.1435 18.9906C17.1435 21.3869 17.1435 23.7832 17.1435 26.1795C17.1435 26.9967 16.8233 27.6261 16.0945 28.0126C14.8135 28.6972 13.3006 27.7917 13.2344 26.312C13.2344 26.2678 13.2344 26.2126 13.2344 26.1684C13.2344 21.3869 13.2344 16.5943 13.2344 11.8127C13.2344 10.8741 13.7203 10.1453 14.5264 9.85817C15.7411 9.41645 17.0662 10.2778 17.1215 11.5698C17.1546 12.3649 17.1325 13.171 17.1325 13.9661C17.1435 15.6336 17.1435 17.3121 17.1435 18.9906Z" fill="#18A0AA"/>
<path d="M0.0110428 18.9687C0.0110428 17.3454 0.0110428 15.7221 0.0110428 14.1099C0.0110428 13.1933 0.66257 12.4203 1.55704 12.2215C2.44047 12.0228 3.36806 12.4866 3.72144 13.3258C3.83186 13.5798 3.89812 13.878 3.89812 14.154C3.90916 17.3896 3.90916 20.6251 3.89812 23.8607C3.89812 24.965 3.01469 25.8373 1.94354 25.8263C0.850298 25.8153 0 24.9429 0 23.8165C0.0110428 22.2043 0.0110428 20.581 0.0110428 18.9687Z" fill="#18A0AA"/>
<path d="M39.7158 18.9904C39.7158 18.1732 39.7048 17.345 39.7158 16.5278C39.7268 15.6002 40.3784 14.8383 41.2949 14.6505C42.1783 14.4738 43.0949 14.9376 43.4483 15.7879C43.5477 16.0198 43.6029 16.2959 43.6139 16.5499C43.625 18.1842 43.625 19.8186 43.6139 21.464C43.6139 22.5241 42.7526 23.3744 41.6925 23.3854C40.6103 23.3965 39.7489 22.5682 39.7158 21.4971C39.7158 21.475 39.7158 21.4529 39.7158 21.4308C39.7048 20.6026 39.7048 19.7965 39.7158 18.9904C39.7048 18.9904 39.7158 18.9904 39.7158 18.9904Z" fill="#18A0AA"/>
</svg>