<svg fill="white" width="20" height="20" viewBox="0 0 20 20" xmlns="http://www.w3.org/2000/svg">
<path d="M18.5351 19.0993C18.1263 18.9616 17.8767 18.6359 17.5935 18.3516C16.6305 17.3877 15.6705 16.4209 14.7106 15.454C14.2972 15.038 13.8823 14.6219 13.4765 14.1999C13.3724 14.0918 13.2928 14.0815 13.1673 14.1629C12.4125 14.6619 11.5873 15.0143 10.6993 15.2201C8.91256 15.6347 7.17637 15.4984 5.49684 14.7611C4.18781 14.1866 3.11456 13.3323 2.27862 12.2026C1.47942 11.1217 0.991026 9.9209 0.842516 8.59721C0.663386 7.01145 0.949688 5.50713 1.73051 4.10053C2.44244 2.81978 3.44832 1.80555 4.74663 1.06671C5.73874 0.502591 6.80586 0.157603 7.95413 0.0480363C9.85873 -0.132601 11.6225 0.273093 13.2025 1.3125C15.1193 2.57548 16.3059 4.32411 16.658 6.55394C17.004 8.74231 16.4498 10.7249 15.052 12.478C14.9188 12.6453 14.9387 12.7237 15.0811 12.8659C16.5294 14.3095 17.967 15.7605 19.4123 17.2071C19.6542 17.4499 19.8441 17.712 19.8839 18.057C19.8839 18.0821 19.8839 18.1073 19.8839 18.131C19.8196 18.6137 19.5532 18.9394 19.0755 19.0993C18.8948 19.0993 18.7157 19.0993 18.5351 19.0993ZM8.78854 13.39C12.0144 13.3841 14.6478 10.8374 14.6294 7.71624C14.6126 4.57285 12.0328 2.05577 8.76711 2.06318C5.4555 2.07058 2.91859 4.61283 2.91706 7.7266C2.91706 10.9292 5.59941 13.3989 8.78854 13.39Z" fill="white"/>
</svg>
